<svg xmlns="http://www.w3.org/2000/svg" width="170" height="52" viewBox="0 0 170 52">
<style>@media (prefers-reduced-motion:reduce){*{animation:none!important}}</style>
<path d="M0 6H159A11 11 0 0 1 170 17V39A11 11 0 0 1 159 50H0Z" fill="#17161e"/><path d="M0 6.5H159A10.5 10.5 0 0 1 169.5 17V39A10.5 10.5 0 0 1 159 49.5H0" fill="none" stroke="#ffffff" stroke-opacity="0.1"/><text x="14" y="23" font-family="'Segoe UI Variable','Segoe UI',system-ui,-apple-system,Roboto,'Helvetica Neue',Arial,sans-serif" font-size="10.5" fill="#F1EFE8">POL</text><text x="14" y="36" font-family="'Segoe UI Variable','Segoe UI',system-ui,-apple-system,Roboto,'Helvetica Neue',Arial,sans-serif" font-size="10.5" fill="#F1EFE8">PL</text>
<g transform="translate(46 17)" fill="none" stroke="#F1EFE8" stroke-width="1.6" stroke-linecap="round"><path d="M1 6.5a9 9 0 0 1 14 0M3.6 9.4a5.4 5.4 0 0 1 8.8 0"/><circle cx="8" cy="12.4" r="1.2" fill="#F1EFE8" stroke="none"/></g>
<g transform="translate(70 17)" fill="none" stroke="#F1EFE8" stroke-width="1.6" stroke-linecap="round" stroke-linejoin="round"><path d="M1 5.5h3l4-3.5v11l-4-3.5H1z" fill="#F1EFE8" stroke="none"/><path d="M10.6 4.4a4.6 4.6 0 0 1 0 6.2M12.6 2.4a7.4 7.4 0 0 1 0 10.2"/></g>
<g font-family="'Segoe UI Variable','Segoe UI',system-ui,-apple-system,Roboto,'Helvetica Neue',Arial,sans-serif" fill="#F1EFE8" text-anchor="end"><text x="156" y="23" font-size="12">23:47</text><text x="156" y="36" font-size="11">01.10.2026</text></g>
</svg>